<svg width="188" height="187" viewBox="0 0 188 187" fill="none" xmlns="http://www.w3.org/2000/svg">
<mask id="mask0" mask-type="alpha" maskUnits="userSpaceOnUse" x="0" y="0" width="188" height="187">
<path fill-rule="evenodd" clip-rule="evenodd" d="M0 0H187.787V186.497H0V0Z" fill="white"/>
</mask>
<g mask="url(#mask0)">
<path fill-rule="evenodd" clip-rule="evenodd" d="M149.653 103.471C148.645 105.617 146.006 107.02 143.669 106.799C142.918 106.744 142.277 106.699 141.608 106.442C140.041 105.763 139.802 105.653 140.911 106.194C139.977 105.837 139.014 105.479 138.171 104.938C136.769 104.076 135.23 103.15 134.213 101.839C133.049 100.335 131.729 98.6572 131.317 96.7592C130.758 94.1185 131.656 92.0463 133.498 90.2033C134.753 88.9288 136.504 88.4245 138.171 88.6262C139.317 88.4795 140.535 88.6812 141.644 89.323C141.782 89.378 141.837 89.4331 141.919 89.4697C141.974 89.5064 142.002 89.5064 142.093 89.5339C142.698 89.754 143.285 90.0015 143.844 90.3041C144.659 90.7351 145.429 91.5603 146.089 92.2205C147.225 93.3666 148.297 94.6228 149.14 96.0073C150.606 98.3638 150.845 100.931 149.653 103.471M128.962 129.621C124.866 133.647 118.561 130.474 116.536 125.963C116.078 124.927 115.62 123.872 115.253 122.79C116.014 125.101 114.767 121.598 114.914 121.974C114.813 121.718 114.722 121.488 114.657 121.232C114.346 120.076 114.263 118.894 114.401 117.766C114.337 116.308 114.832 114.822 115.922 113.75C116.747 112.906 117.819 112.429 118.928 112.283C121.796 111.063 124.572 111.742 126.753 114.144C127.633 115.098 128.348 116.207 128.852 117.39C129.044 117.848 129.182 118.16 129.273 118.371C129.301 118.463 129.347 118.536 129.383 118.618C130.923 122.167 132.087 126.504 128.962 129.621M110.433 101.481C99.7941 110.632 71.6618 116.418 67.2724 97.1993C63.5336 80.8507 76.9308 69.3709 91.6751 67.0053C99.6566 64.9881 108.298 66.4001 114.492 72.846C122.602 81.3 118.424 94.6228 110.433 101.481M103.753 135.792C102.497 139.13 100.765 141.083 97.1 141.505C94.6716 141.816 91.5743 139.524 90.5663 137.461C89.5491 135.416 88.8435 133.124 88.9627 130.795C89.0451 129.062 89.1093 127.348 89.6133 125.789C89.7507 123.817 90.8962 122.02 92.7656 121.204C93.1504 120.874 93.5628 120.572 94.0576 120.324C96.9808 118.857 99.6108 119.783 101.966 121.754C104.128 123.561 104.275 127.256 104.303 129.704C104.339 131.675 104.449 133.949 103.753 135.792M73.6869 140.936C68.5828 143.439 62.0033 139.286 62.7639 133.418C63.0388 131.263 63.4878 129.493 64.4317 127.54C63.7719 128.897 64.8257 126.449 65.0456 126.146C65.4213 125.587 65.8062 125.064 66.2277 124.569C66.6034 124.102 67.0066 123.579 67.474 123.203C67.7856 122.79 67.9138 122.763 67.8222 123.102C68.8027 121.773 70.1314 120.856 71.5976 120.572C72.9263 119.911 74.5666 119.71 75.9778 120.104C79.0018 120.929 81.1186 124.569 80.8804 127.632C80.4955 132.464 78.3512 138.644 73.6869 140.936M51.9142 121.204C48.7711 122.094 45.069 122.057 42.494 119.856C40.2397 117.903 40.029 114.291 41.5593 111.833C43.841 108.221 47.6806 106.35 51.7401 105.497C52.3907 105.241 53.0413 104.993 53.7194 104.865C57.1191 104.186 60.2439 105.598 61.4627 108.973C63.5245 114.648 56.6151 119.893 51.9142 121.204M34.1917 80.0622C35.4197 77.0364 37.5914 75.6426 40.817 75.4593C42.1366 75.3767 43.4103 75.4959 44.7024 75.7343C45.1056 75.7985 45.4996 75.8719 45.8845 75.9636C46.4618 76.0369 46.5901 76.1103 46.2877 76.1745C46.4435 76.1928 46.6634 76.2295 46.8833 76.2661C48.8993 76.5229 51.4193 77.1647 52.9405 78.3475C54.2692 79.347 55.2406 80.6398 55.5063 82.1619C55.6071 82.5745 55.6804 83.0238 55.6804 83.5006C55.6804 86.6915 52.9772 89.4331 49.8065 89.4331C48.0013 89.4331 45.7379 89.1763 44.3725 89.0938C41.825 89.0021 39.809 87.9477 37.5365 86.9207C35.2272 85.8846 33.1471 82.6479 34.1917 80.0622M59.1901 48.3461C60.6288 47.1266 62.4982 46.4847 64.4867 47.2366C67.309 48.3094 69.0318 49.9782 70.0856 52.7931C70.3239 53.3799 70.2689 53.2699 69.9298 52.4722C70.0948 52.8756 70.2781 53.3066 70.4522 53.7192C70.5255 53.9026 70.5988 54.0951 70.6721 54.2785C70.8187 54.7094 70.9837 55.1404 71.1119 55.5805C71.5243 56.9284 71.9367 58.5055 71.845 59.8992C71.6251 62.8333 70.2872 65.2723 67.364 66.2534C65.2747 66.9594 62.7639 66.2718 61.0045 65.0798C59.1168 63.7686 57.5773 61.9439 56.6518 59.8442C55.6804 57.6986 55.5705 55.6905 55.5705 53.3616C55.5705 51.0693 57.1099 49.0796 59.1901 48.3461M79.2126 44.9076C78.9102 41.7443 80.7337 38.1775 83.3179 36.6554C85.5171 35.3625 89.1368 35.5642 90.8687 37.5815C92.0508 38.966 92.5823 40.3597 92.7381 42.1019C92.848 42.8721 93.407 44.9626 92.8022 42.7437C92.8389 42.8537 92.8572 42.9546 92.8755 43.0646C93.3154 45.8429 93.517 49.2446 92.399 51.8945C91.4368 54.1685 89.3567 56.855 86.4702 56.4974C83.9227 56.1765 81.7234 55.067 80.578 52.6464C79.6891 50.7667 79.35 48.7587 79.2492 46.6864C79.2126 46.1088 79.2126 45.5219 79.2126 44.9443C79.2126 44.926 79.2126 44.9076 79.2126 44.9076M105.86 46.4847C106.034 46.0721 106.218 45.6411 106.392 45.2102C106.593 44.8068 106.813 44.3941 107.033 43.9632C107.455 43.248 107.941 42.5603 108.518 41.9368C109.058 40.974 109.691 40.0755 110.461 39.3236C112.403 37.4623 114.63 36.9396 116.82 37.6365C118.451 37.8932 120.064 38.801 120.825 40.3047C122.107 42.7437 121.943 45.7328 120.971 48.2727C120.027 50.7667 118.387 53.3249 116.307 55.012C114.282 56.6441 112.22 57.4419 109.572 56.8917C106.694 56.2865 104.852 53.169 104.834 50.4274C104.825 48.9237 105.402 47.5758 105.961 46.2371C106.19 45.7328 106.154 45.8062 105.86 46.4847M127.899 60.6694C130.052 56.5708 135.202 55.1496 139.473 55.1404C140.71 55.1404 141.855 55.5989 142.781 56.3507C143.706 56.8367 144.503 57.5519 145.099 58.5788C146.831 61.5496 146.024 64.9697 143.532 67.207C142.35 68.2615 141.039 68.8941 139.573 69.4443C138.923 69.7102 139.042 69.646 139.931 69.2701C139.518 69.4443 139.088 69.6277 138.666 69.7835C138.529 69.8569 138.4 69.9119 138.281 69.9486C136.925 70.3979 135.422 70.6821 134.002 70.7005C132.087 70.7005 129.832 70.1778 128.559 68.6191C126.625 66.2259 126.488 63.3743 127.899 60.6694M186.39 72.1675C181.451 46.989 161.676 11.1559 124.572 2.68363C100.591 -2.79953 71.2127 0.0887602 51.3644 11.6327C42.0725 17.0609 32.0291 24.0661 24.8449 32.3734C19.7041 37.7832 15.2597 43.8532 11.9425 50.7484C9.15675 55.4613 6.83836 60.5044 5.05145 65.8133C4.63909 67.0236 4.30004 68.2798 3.98847 69.5543C3.47531 71.0947 2.98047 72.6535 2.52229 74.2122C0.680407 80.6398 -0.125991 87.5167 0.130591 94.2285C-1.05152 115.611 5.82119 136.783 19.5483 153.718C36.3544 174.422 63.2862 187.607 90.0073 186.424C116.783 185.26 142.991 171.955 161.282 152.645C180.709 132.143 191.888 100.28 186.39 72.1675" fill="#2CA842"/>
</g>
<path fill-rule="evenodd" clip-rule="evenodd" d="M80.5772 52.6473C81.7227 55.068 83.922 56.1774 86.4786 56.4983C89.356 56.8559 91.4453 54.1694 92.3983 51.8954C93.5163 49.2455 93.3147 45.8438 92.8748 43.0655C92.8565 42.9555 92.8382 42.8546 92.8015 42.7446C93.4063 44.9635 92.8473 42.873 92.7374 42.1028C92.5907 40.3606 92.0501 38.9669 90.868 37.5824C89.1361 35.5652 85.5164 35.3634 83.3172 36.6563C80.7422 38.1784 78.9095 41.7452 79.221 44.9085C79.221 44.9085 79.2119 44.9269 79.2119 44.9452C79.2119 45.5229 79.221 46.1097 79.2485 46.6873C79.3493 48.7596 79.6884 50.7676 80.5772 52.6473" fill="#274697"/>
<path fill-rule="evenodd" clip-rule="evenodd" d="M104.837 50.4265C104.855 53.1681 106.688 56.2856 109.575 56.8908C112.223 57.4501 114.276 56.6432 116.31 55.0111C118.39 53.324 120.021 50.7658 120.974 48.281C121.936 45.7319 122.11 42.7428 120.828 40.3038C120.058 38.8 118.445 37.8923 116.823 37.6356C114.624 36.9387 112.397 37.4613 110.454 39.3227C109.685 40.0746 109.061 40.9731 108.512 41.9359C107.943 42.5686 107.449 43.2471 107.027 43.9623C106.816 44.3932 106.587 44.8058 106.395 45.2185C106.212 45.6494 106.037 46.0712 105.854 46.4838C106.157 45.8053 106.184 45.7319 105.964 46.2362C105.405 47.5749 104.828 48.9228 104.837 50.4265" fill="#274697"/>
<path fill-rule="evenodd" clip-rule="evenodd" d="M61.0053 65.0752C62.7556 66.2763 65.2756 66.9549 67.3557 66.258C70.2881 65.2677 71.6259 62.8379 71.8459 59.9038C71.9283 58.5009 71.516 56.9238 71.1128 55.5851C70.9845 55.1358 70.8195 54.7049 70.6729 54.2739C70.5996 54.0997 70.5263 53.898 70.453 53.7238C70.2789 53.3111 70.0956 52.8802 69.9307 52.4676C70.2697 53.2745 70.3247 53.3845 70.0865 52.7885C69.0326 49.9827 67.3007 48.314 64.4875 47.2412C62.499 46.4893 60.6296 47.1311 59.1909 48.3506C57.1108 49.0842 55.5713 51.0739 55.5713 53.3662C55.5713 55.6951 55.6813 57.694 56.6434 59.8488C57.5781 61.9393 59.1176 63.764 61.0053 65.0752" fill="#274697"/>
<path fill-rule="evenodd" clip-rule="evenodd" d="M134.002 70.6986C135.422 70.6803 136.925 70.396 138.281 69.9467C138.4 69.9101 138.529 69.8551 138.666 69.7817C139.088 69.6258 139.518 69.4424 139.931 69.2682C139.042 69.6442 138.923 69.7175 139.573 69.4424C141.039 68.8923 142.35 68.2596 143.532 67.2052C146.024 64.9679 146.831 61.5478 145.099 58.577C144.503 57.55 143.706 56.8348 142.78 56.358C141.855 55.6062 140.71 55.1385 139.472 55.1385C135.202 55.1569 130.052 56.5689 127.899 60.6676C126.488 63.3725 126.625 66.2241 128.559 68.6172C129.832 70.176 132.087 70.6986 134.002 70.6986" fill="#274697"/>
<path fill-rule="evenodd" clip-rule="evenodd" d="M49.8017 89.4312C52.9815 89.4312 55.6848 86.6896 55.6848 83.5079C55.6848 83.022 55.6115 82.5727 55.5015 82.1601C55.2449 80.638 54.2644 79.3451 52.9449 78.3457C51.4237 77.1629 48.8945 76.521 46.8877 76.2643C46.6586 76.2368 46.4479 76.2001 46.2829 76.1818C46.5853 76.1084 46.4662 76.0351 45.8797 75.9617C45.4948 75.87 45.1008 75.8058 44.6976 75.7325C43.4147 75.4941 42.1318 75.3749 40.8214 75.4666C37.5958 75.6408 35.424 77.0345 34.1961 80.0695C33.1514 82.646 35.2224 85.8827 37.5317 86.928C39.8042 87.9458 41.8294 89.0003 44.3677 89.092C45.7423 89.1836 48.0057 89.4312 49.8017 89.4312" fill="#274697"/>
<path fill-rule="evenodd" clip-rule="evenodd" d="M53.7214 104.868C53.0433 104.997 52.3835 105.244 51.7421 105.492C47.6826 106.354 43.843 108.215 41.5613 111.837C40.031 114.285 40.2326 117.907 42.4868 119.86C45.071 122.061 48.7731 122.097 51.9162 121.199C56.608 119.897 63.5173 114.643 61.4647 108.967C60.2459 105.602 57.1211 104.19 53.7214 104.868" fill="#274697"/>
<path fill-rule="evenodd" clip-rule="evenodd" d="M75.977 120.108C74.5658 119.714 72.9255 119.916 71.5968 120.576C70.1306 120.86 68.8019 121.777 67.8213 123.098C67.913 122.758 67.7847 122.795 67.4731 123.208C67.0058 123.584 66.6026 124.106 66.2269 124.565C65.8054 125.069 65.4205 125.592 65.0448 126.142C64.8248 126.444 63.771 128.902 64.4308 127.545C63.487 129.489 63.0379 131.267 62.763 133.413C62.0025 139.29 68.5819 143.444 73.6861 140.932C78.3503 138.639 80.4946 132.468 80.8795 127.627C81.1178 124.565 79.001 120.934 75.977 120.108" fill="#274697"/>
<path fill-rule="evenodd" clip-rule="evenodd" d="M101.965 121.756C99.6098 119.785 96.9799 118.859 94.0567 120.326C93.5618 120.573 93.1495 120.876 92.7646 121.197C90.8952 122.022 89.7498 123.819 89.6123 125.781C89.1083 127.34 89.0442 129.064 88.9617 130.797C88.8426 133.126 89.5573 135.418 90.5653 137.463C91.5733 139.517 94.6706 141.818 97.099 141.507C100.764 141.076 102.506 139.132 103.752 135.794C104.448 133.951 104.338 131.677 104.302 129.706C104.274 127.258 104.127 123.562 101.965 121.756" fill="#274697"/>
<path fill-rule="evenodd" clip-rule="evenodd" d="M129.276 118.371C129.175 118.16 129.047 117.848 128.854 117.39C128.341 116.207 127.627 115.098 126.756 114.144C124.566 111.742 121.798 111.063 118.93 112.283C117.821 112.429 116.749 112.906 115.925 113.75C114.834 114.822 114.339 116.308 114.403 117.766C114.257 118.894 114.348 120.076 114.651 121.232C114.724 121.488 114.816 121.718 114.917 121.974C114.77 121.598 116.016 125.101 115.256 122.79C115.622 123.872 116.08 124.927 116.529 125.963C118.564 130.474 124.868 133.647 128.964 129.621C132.089 126.504 130.925 122.167 129.386 118.618C129.349 118.536 129.303 118.463 129.276 118.371" fill="#274697"/>
<path fill-rule="evenodd" clip-rule="evenodd" d="M146.091 92.2251C145.431 91.5649 144.662 90.7397 143.846 90.3087C143.278 90.0061 142.701 89.7494 142.087 89.5385C142.004 89.5018 141.977 89.5018 141.922 89.4652C141.839 89.4285 141.775 89.3735 141.647 89.3276C140.538 88.6766 139.319 88.4841 138.174 88.6216C136.506 88.429 134.756 88.9333 133.5 90.1987C131.658 92.0417 130.76 94.1231 131.319 96.7546C131.732 98.6527 133.051 100.34 134.215 101.844C135.223 103.146 136.763 104.081 138.174 104.943C139.017 105.475 139.979 105.832 140.914 106.19C139.796 105.658 140.043 105.768 141.61 106.446C142.279 106.694 142.911 106.749 143.663 106.804C146 107.015 148.639 105.621 149.656 103.476C150.847 100.927 150.609 98.3684 149.143 96.0028C148.29 94.6274 147.227 93.3712 146.091 92.2251" fill="#274697"/>
</svg>
