<svg width="75" height="72" viewBox="0 0 75 72" fill="none" xmlns="http://www.w3.org/2000/svg">
<path fill-rule="evenodd" clip-rule="evenodd" d="M22.9276 37.9674C19.1092 36.2201 4.34428 28.119 0.901016 25.7464C-0.486567 24.7905 -0.238172 23.3584 1.41665 23.0004C2.95669 22.6681 4.59439 22.692 6.18582 22.7383C8.92159 22.8188 11.6539 23.0158 14.3863 23.2111C16.6098 23.3687 18.8265 23.5863 21.0432 23.7901C24.2792 24.0848 27.5118 24.4154 30.7495 24.6586C31.027 24.6809 31.5203 24.2184 31.6146 23.8946C32.4214 21.1588 33.0587 18.3717 33.9375 15.6616C35.2017 11.7627 36.591 7.90143 38.006 4.05388C38.3932 3.00206 38.9945 2.0102 39.6129 1.06801C40.5893 -0.420644 42.2733 -0.334991 43.1949 1.21191C43.4279 1.60249 43.6283 2.05302 43.6917 2.49842C44.1696 5.83204 44.6527 9.16567 45.0519 12.5096C45.3945 15.3721 45.6257 18.2483 45.9152 21.2291C48.3152 20.2047 50.6227 19.1614 52.9731 18.2278C57.254 16.525 61.559 14.8822 65.8605 13.2256C67.1847 12.7134 68.4969 12.1139 69.869 11.7935C70.8352 11.5691 73.7731 10.2398 74.8489 10.2398C75.0648 12.2115 71.9949 14.937 71.0116 16.1053C66.9671 20.9156 62.8318 25.6505 58.6861 30.3734C58.0232 31.1272 57.9581 31.624 58.6622 32.3709C61.6874 35.576 71.0202 45.3233 72.6904 46.9662C72.9268 47.1991 73.1958 47.4561 73.2934 47.7525C73.463 48.2612 73.7594 48.9807 73.5436 49.2925C73.3191 49.6146 72.4849 49.7653 72.0275 49.6317C67.099 48.1739 62.1825 46.6784 57.2866 45.1212C55.4964 44.5542 53.7679 43.7953 51.6437 42.9833C51.6437 45.9743 51.6985 48.8351 51.6283 51.6925C51.5409 55.218 51.3148 58.7418 51.2155 62.269C51.1795 63.5932 50.7889 68.5868 50.3881 69.7191C50.3024 69.9555 49.8056 72.0831 49.5572 71.9975C48.3512 71.5881 46.9311 69.517 46.2236 68.1911C44.663 65.2737 43.0116 62.4112 41.4373 59.5024C40.0754 56.9825 38.7478 54.442 37.4493 51.8878C36.9045 50.8171 36.4711 49.6917 35.9144 48.4154C34.8111 49.2839 33.7268 50.1182 32.663 50.9799C27.5632 55.1169 22.4736 59.2728 17.3619 63.3945C16.6098 64.0026 15.7773 64.5148 14.9413 65.003C13.8569 65.6369 12.7434 65.7482 11.6505 64.9482C11.6419 62.0069 13.0929 59.5675 14.2475 57.0219C16.2535 52.5902 18.2064 48.1328 20.2073 43.6994C21.0484 41.8355 21.9597 40.0026 22.9276 37.9674" fill="#F1A68C"/>
</svg>
