<svg width="58" height="78" viewBox="0 0 58 78" fill="none" xmlns="http://www.w3.org/2000/svg">
<path fill-rule="evenodd" clip-rule="evenodd" d="M36.5168 47.039C36.2484 48.5503 34.8306 49.2595 33.364 48.7826C32.4294 48.4745 31.9755 47.7604 31.8022 46.9118C31.7558 46.6672 31.7388 46.4129 31.7705 46.161C31.8461 45.4494 32.0609 44.7622 32.6026 44.1972C33.8374 42.9304 35.9556 43.3266 36.4217 45.0067C36.5974 45.6474 36.634 46.3787 36.5168 47.039ZM35.6816 54.948C35.3668 57.3177 34.952 59.3744 33.7123 61.3675C32.5068 63.3069 30.7718 64.087 28.5926 63.9769C26.5135 63.8767 25.1372 62.7346 24.244 60.9004C23.3997 59.1714 23.263 57.3324 23.2484 55.4664C23.2459 54.7328 23.49 52.3753 23.49 52.3753C24.4905 52.3288 26.3158 52.2457 26.3158 52.2457C26.3158 52.2457 26.1401 54.9627 26.2646 56.161C26.677 60.0836 27.6555 60.651 28.534 60.9371C29.6444 61.2966 30.6302 60.5752 31.2403 59.2473C31.7869 58.0563 32.0017 57.4107 32.3824 55.3271C32.5361 54.4564 32.8289 52.1454 32.8289 52.1454L35.7402 51.9913C35.7402 51.9913 35.8305 53.8255 35.6816 54.948ZM21.6525 47.0145C21.6037 46.7724 21.5915 46.5132 21.6208 46.2638C21.7037 45.5546 21.9112 44.8649 22.4602 44.3024C23.6877 43.0356 25.8059 43.4318 26.2744 45.1095C26.4501 45.7502 26.4867 46.479 26.3696 47.1344C26.1011 48.6555 24.6784 49.3647 23.2143 48.8829C22.2821 48.5772 21.8233 47.8607 21.6525 47.0145ZM51.8146 34.376C50.919 33.1777 47.6222 28.9224 41.6947 27.0296C40.2427 26.5698 38.803 26.2079 37.3339 26C36.4456 26.2152 35.5574 26.4231 34.6716 26.6285C35.3402 27.685 35.9161 28.7415 36.3968 29.6145C37.5169 31.6443 38.637 33.6741 39.557 35.8115C40.0231 36.8876 40.4697 38.2448 39.8254 39.3404C37.6023 43.1506 33.0219 36.7971 31.7554 35.1463C30.4499 33.454 29.176 31.7201 28.195 29.8102C27.9193 29.2795 27.6655 28.7292 27.4093 28.179C26.4746 29.9496 25.6254 31.769 24.62 33.4956C23.6244 35.1952 22.5458 36.8998 21.3427 38.4552C20.3446 39.7537 19.4539 41.1746 17.9702 41.9523C17.3748 42.2678 16.6061 42.3436 16.018 41.9523C12.9896 39.9567 16.6696 34.9409 17.8848 32.8622C18.6389 31.5832 19.3588 30.265 20.1641 29.0227C20.5081 28.4773 20.8498 27.9344 21.1914 27.394C19.9152 27.3304 18.6486 27.2252 17.3943 27.1078C17.3285 27.1396 17.2552 27.169 17.1894 27.1983C16.428 27.3793 15.6715 27.6067 14.9199 27.8831C10.1589 29.6414 6.36913 33.1263 3.66285 37.3644C0.783314 41.8691 -0.307493 47.3251 0.0731915 52.6173C0.366026 56.6109 1.72282 60.2058 3.76778 63.4755C6.99872 69.5502 12.7383 74.4609 19.2734 76.4418C20.9572 76.948 22.6654 77.3466 24.3955 77.5887C28.9979 78.2417 34.3714 77.9947 36.1553 77.6841C40.7259 76.882 45.5113 74.1552 48.9082 71.0518C51.9341 68.2932 54.0157 64.6396 55.414 60.8294C58.5571 52.2676 57.2686 41.7126 51.8146 34.376Z" fill="#EA5D31"/>
<path fill-rule="evenodd" clip-rule="evenodd" d="M20.0506 29.1345C19.2548 30.3753 18.5433 31.6919 17.7981 32.9693C16.5971 35.0455 12.9626 40.0551 15.9531 42.0482C16.5343 42.439 17.294 42.3633 17.8849 42.0482C19.3488 41.2715 20.2291 39.8524 21.2155 38.5554C22.4069 37.0019 23.4705 35.2995 24.4545 33.6019C25.4481 31.8775 26.2874 30.0603 27.2111 28.2919C27.4643 28.8414 27.7151 29.391 27.9876 29.921C28.9571 31.8311 30.2161 33.5604 31.5063 35.2506C32.7604 36.8993 37.2848 43.245 39.4843 39.4396C40.1186 38.3453 39.6797 36.9897 39.2166 35.915C38.3074 33.7802 37.2004 31.7529 36.0934 29.7256C35.6183 28.8536 35.0492 27.7985 34.3884 26.7433C35.2662 26.5406 36.1417 26.3329 37.0196 26.118C37.8516 25.9104 38.6812 25.6954 39.5036 25.4561C40.5021 25.1605 41.4885 24.8259 42.4628 24.4815C43.7579 24.12 45.2797 23.7146 46.5531 23.0624C48.1328 22.547 50.4215 21.0913 49.8789 19.0957C49.3483 17.1466 46.7919 17.1515 45.2146 17.1417C43.0296 17.127 40.5117 17.8549 38.3894 18.3385C35.6883 18.9492 33.0185 19.6941 30.3728 20.5295C30.438 17.9819 30.3077 15.4002 30.3897 12.8941C30.5272 8.7516 30.9806 4.55532 30.5513 0.425001C30.4404 0.420116 30.3294 0.415231 30.2161 0.39569C28.4242 0.144109 26.6081 0.0879312 24.7993 0C24.3025 3.5661 24.0059 7.15174 23.8226 10.7496C23.7116 12.9992 23.7985 15.3049 23.7816 17.5936C23.7285 18.6585 23.6851 19.7186 23.6538 20.7811C23.6393 20.7762 23.6224 20.7713 23.6128 20.7689C21.5387 20.4196 19.4429 20.2413 17.3471 20.1265C15.3164 20.019 13.264 19.9921 11.2334 20.1069C9.68745 20.1851 7.88831 20.1289 6.58597 21.0864C5.94687 21.5529 5.36805 22.4249 5.70811 23.2725C7.0442 26.6212 11.9062 26.6871 14.9643 26.9973C15.7361 27.073 16.5223 27.1512 17.3133 27.222C18.553 27.3417 19.8046 27.4467 21.066 27.5078C20.7283 28.05 20.3931 28.5898 20.0506 29.1345Z" fill="#056E40"/>
<path fill-rule="evenodd" clip-rule="evenodd" d="M26.4386 47.507C26.5622 46.8359 26.5236 46.0896 26.3382 45.4335C25.8464 43.7155 23.6089 43.3098 22.3138 44.607C21.7344 45.183 21.5156 45.8892 21.4306 46.6155C21.3971 46.8709 21.41 47.1364 21.4615 47.3843C21.6443 48.2508 22.1258 48.9845 23.1094 49.2976C24.6569 49.7909 26.158 49.0647 26.4386 47.507Z" fill="#274697"/>
<path fill-rule="evenodd" clip-rule="evenodd" d="M31.9943 44.6059C31.42 45.1842 31.1934 45.8877 31.1135 46.6163C31.0826 46.8741 31.0981 47.1345 31.1496 47.3848C31.3299 48.2536 31.8115 48.9846 32.7979 49.3C34.3432 49.7882 35.8396 49.0622 36.1254 47.515C36.2465 46.8416 36.2104 46.0905 36.0224 45.4346C35.5305 43.7172 33.2975 43.3091 31.9943 44.6059Z" fill="#274697"/>
<path fill-rule="evenodd" clip-rule="evenodd" d="M32.6966 52.1482C32.6966 52.1482 32.3985 54.4077 32.2394 55.2588C31.8543 57.2959 31.6331 57.9271 31.079 59.0915C30.4579 60.3898 29.4515 61.0951 28.321 60.7436C27.4289 60.4663 26.4326 59.9092 26.0126 56.0765C25.8859 54.9026 26.0648 52.2463 26.0648 52.2463C26.0648 52.2463 24.2062 52.3276 23.1875 52.373C23.1875 52.373 22.9365 54.6802 22.9415 55.3951C22.9564 57.2194 23.0955 59.0174 23.9528 60.7078C24.8647 62.501 26.2661 63.6175 28.3831 63.7156C30.602 63.8232 32.3686 63.0604 33.5936 61.1644C34.8584 59.2158 35.2808 57.2051 35.6013 54.8882C35.7504 53.7908 35.6585 52 35.6585 52L32.6966 52.1482Z" fill="#FDEEE4"/>
</svg>
